<svg width="500" height="750" viewBox="0 0 500 750" fill="none" xmlns="http://www.w3.org/2000/svg">
  <rect width="500" height="750" fill="#e2e8f0"/>
  <path d="M250 325C272.091 325 290 307.091 290 285C290 262.909 272.091 245 250 245C227.909 245 210 262.909 210 285C210 307.091 227.909 325 250 325Z" fill="#94a3b8"/>
  <path d="M250 355C215.5 355 150 372.4 150 406.9V425H350V406.9C350 372.4 284.5 355 250 355Z" fill="#94a3b8"/>
  <path d="M250 157.143C239.25 157.143 230.357 166.036 230.357 176.786V219.643H207.143V176.786C207.143 153.214 226.429 133.929 250 133.929C273.571 133.929 292.857 153.214 292.857 176.786V219.643H269.643V176.786C269.643 166.036 260.75 157.143 250 157.143Z" fill="#94a3b8"/>
  <path d="M353.571 219.643H146.429C137.071 219.643 129.464 227.25 129.464 236.607V509.821C129.464 519.179 137.071 526.786 146.429 526.786H353.571C362.929 526.786 370.536 519.179 370.536 509.821V236.607C370.536 227.25 362.929 219.643 353.571 219.643Z" stroke="#94a3b8" stroke-width="10"/>
  <text x="250" y="625" font-family="Arial" font-size="36" fill="#64748b" text-anchor="middle">No Image Available</text>
</svg> 